<svg width="158" height="32" viewBox="0 0 158 32" fill="none" xmlns="http://www.w3.org/2000/svg">
<path d="M35.6326 7.92771V24.7277H38.7897V11.1437H39.0288L43.0709 24.7277H48.5001V7.92771H45.343V21.5117H45.1039L41.0618 7.92771H35.6326Z" fill="#2B2A45"/>
<path d="M51.0903 15.8477L53.8648 16.7837C54.08 15.7037 54.7975 14.8877 56.3043 14.8877C57.8351 14.8877 58.5047 15.7517 58.5047 16.8557V17.5277H55.252C52.5732 17.5277 50.6598 18.7997 50.6598 21.2477C50.6598 23.6957 52.5732 25.0637 55.0128 25.0637C57.2132 25.0637 58.0025 23.8637 58.2177 23.3357H58.5526V24.7277H61.4227V17.0717C61.4227 14.0957 59.4614 12.4877 56.3522 12.4877C53.2668 12.4877 51.6644 14.0477 51.0903 15.8477ZM53.6734 21.1757C53.6734 20.3597 54.3431 19.7837 55.4672 19.7837H58.5047V19.9757C58.5047 21.5597 57.3089 22.6157 55.6346 22.6157C54.3431 22.6157 53.6734 22.0157 53.6734 21.1757Z" fill="#2B2A45"/>
<path d="M66.9291 12.8237H63.9633V24.7277H66.9769V17.8157C66.9769 16.1357 68.0771 15.3197 69.6078 15.3197H71.3777V12.7757H70.134C68.6272 12.7757 67.6227 13.2317 67.1683 14.5037H66.9291V12.8237Z" fill="#2B2A45"/>
<path d="M75.8748 12.8237H72.909V24.7277H75.9226V17.8157C75.9226 16.1357 77.0228 15.3197 78.5535 15.3197H80.3234V12.7757H79.0797C77.5729 12.7757 76.5684 13.2317 76.1139 14.5037H75.8748V12.8237Z" fill="#2B2A45"/>
<path d="M81.5944 15.8477L84.3688 16.7837C84.5841 15.7037 85.3016 14.8877 86.8084 14.8877C88.3391 14.8877 89.0088 15.7517 89.0088 16.8557V17.5277H85.756C83.0773 17.5277 81.1639 18.7997 81.1639 21.2477C81.1639 23.6957 83.0773 25.0637 85.5169 25.0637C87.7173 25.0637 88.5065 23.8637 88.7218 23.3357H89.0566V24.7277H91.9267V17.0717C91.9267 14.0957 89.9655 12.4877 86.8562 12.4877C83.7709 12.4877 82.1684 14.0477 81.5944 15.8477ZM84.1775 21.1757C84.1775 20.3597 84.8472 19.7837 85.9713 19.7837H89.0088V19.9757C89.0088 21.5597 87.8129 22.6157 86.1387 22.6157C84.8472 22.6157 84.1775 22.0157 84.1775 21.1757Z" fill="#2B2A45"/>
<path d="M92.9901 15.2717H95.9559V22.0397C95.9559 23.6717 97.0083 24.7277 98.5868 24.7277H101.935V22.2797H99.6392C99.2087 22.2797 98.9695 22.0397 98.9695 21.5597V15.2717H102.222V12.8237H98.9695V9.12771H95.9559V12.8237H92.9901V15.2717Z" fill="#2B2A45"/>
<path d="M103.609 9.36771C103.609 10.5917 104.542 11.4317 105.737 11.4317C106.933 11.4317 107.866 10.5917 107.866 9.36771C107.866 8.14371 106.933 7.30371 105.737 7.30371C104.542 7.30371 103.609 8.14371 103.609 9.36771ZM107.244 12.8237H104.231V24.7277H107.244V12.8237Z" fill="#2B2A45"/>
<path d="M108.638 12.8237L112.728 24.7277H117.177L121.267 12.8237H118.014L115.072 22.1837H114.833L111.891 12.8237H108.638Z" fill="#2B2A45"/>
<path d="M121.708 18.7757C121.708 22.5677 124.172 25.0637 127.711 25.0637C130.964 25.0637 132.375 23.2157 133.045 21.9437L130.581 20.6477C130.175 21.5597 129.481 22.4717 127.807 22.4717C126.133 22.4717 124.865 21.2957 124.793 19.6637H133.428V18.6317C133.428 14.9837 131.155 12.4877 127.663 12.4877C124.172 12.4877 121.708 14.9837 121.708 18.7757ZM124.817 17.4077C125.009 16.0877 126.013 15.0797 127.64 15.0797C129.194 15.0797 130.223 16.0397 130.366 17.4077H124.817Z" fill="#2B2A45"/>
<path d="M139.392 7.92771V24.7277H147.045C149.915 24.7277 151.972 22.9997 151.972 20.1677C151.972 17.6717 150.346 16.7117 149.15 16.3757V16.1357C150.346 15.7757 151.876 14.8397 151.876 12.3917C151.876 9.65571 149.867 7.92771 146.949 7.92771H139.392ZM142.549 10.8077H146.615C147.954 10.8077 148.863 11.5757 148.863 12.8237C148.863 14.0717 147.954 14.8397 146.615 14.8397H142.549V10.8077ZM142.549 17.7197H146.662C148.05 17.7197 148.959 18.4877 148.959 19.7837C148.959 21.0797 148.05 21.8477 146.662 21.8477H142.549V17.7197Z" fill="#2B2A45"/>
<path d="M154.083 7.92771V24.7277H157.24V7.92771H154.083Z" fill="#2B2A45"/>
<path fill-rule="evenodd" clip-rule="evenodd" d="M21.2484 16.0001C19.9577 19.9081 16.2863 22.7274 11.9587 22.7274C7.63112 22.7274 3.95972 19.9081 2.66902 16.0001C3.95972 12.0921 7.63112 9.27282 11.9587 9.27282C16.2863 9.27282 19.9577 12.0921 21.2484 16.0001ZM21.7142 12.1487C19.5471 9.08794 15.9853 7.091 11.9587 7.091C7.93211 7.091 4.37032 9.08794 2.20323 12.1487C2.59005 7.08165 6.80995 3.091 11.9587 3.091C17.1075 3.091 21.3274 7.08165 21.7142 12.1487ZM23.517 16.0001C23.7782 15.0139 23.9174 13.9779 23.9174 12.9092C23.9174 6.28176 18.5633 0.90918 11.9587 0.90918C5.3541 0.90918 0 6.28176 0 12.9092C0 13.9779 0.139219 15.0139 0.400451 16.0001C0.139219 16.9863 0 18.0223 0 19.091C0 25.7184 5.3541 31.091 11.9587 31.091C18.5633 31.091 23.9174 25.7184 23.9174 19.091C23.9174 18.0223 23.7782 16.9863 23.517 16.0001ZM21.7142 19.8515C19.5471 22.9122 15.9853 24.9092 11.9587 24.9092C7.93211 24.9092 4.37032 22.9122 2.20323 19.8515C2.59005 24.9185 6.80995 28.9092 11.9587 28.9092C17.1075 28.9092 21.3274 24.9185 21.7142 19.8515ZM16.3073 16.0001C16.3073 18.4101 14.3604 20.3637 11.9587 20.3637C9.55704 20.3637 7.61009 18.4101 7.61009 16.0001C7.61009 13.5901 9.55704 11.6365 11.9587 11.6365C14.3604 11.6365 16.3073 13.5901 16.3073 16.0001Z" fill="#8D80D1"/>
</svg>
